<svg xmlns="http://www.w3.org/2000/svg" viewBox="0 0 800 1200" width="800" height="1200">
  <!-- Background -->
  <rect width="800" height="1200" fill="#f8f9fa" />
  
  <!-- Title -->
  <text x="400" y="40" font-family="Arial" font-size="24" font-weight="bold" text-anchor="middle">Deep Matrix Factorization (DMF) Architecture</text>
  
  <!-- Input Section -->
  <rect x="50" y="80" width="700" height="100" rx="10" fill="#e6f7ff" stroke="#1890ff" stroke-width="2" />
  <text x="400" y="110" font-family="Arial" font-size="18" font-weight="bold" text-anchor="middle">INPUT</text>
  
  <!-- Input details -->
  <rect x="100" y="130" width="120" height="35" rx="5" fill="#fff" stroke="#1890ff" stroke-width="1" />
  <text x="160" y="153" font-family="Arial" font-size="14" text-anchor="middle">user_id</text>
  
  <rect x="340" y="130" width="120" height="35" rx="5" fill="#fff" stroke="#1890ff" stroke-width="1" />
  <text x="400" y="153" font-family="Arial" font-size="14" text-anchor="middle">product_id</text>
  
  <rect x="580" y="130" width="120" height="35" rx="5" fill="#fff" stroke="#1890ff" stroke-width="1" />
  <text x="640" y="153" font-family="Arial" font-size="14" text-anchor="middle">rating</text>
  
  <!-- Arrow down -->
  <line x1="400" y1="180" x2="400" y2="220" stroke="#666" stroke-width="2" stroke-dasharray="5,5" />
  
  <!-- Embedding Layer -->
  <rect x="50" y="220" width="700" height="120" rx="10" fill="#fff2e8" stroke="#fa541c" stroke-width="2" />
  <text x="400" y="250" font-family="Arial" font-size="18" font-weight="bold" text-anchor="middle">Embedding Layer</text>
  
  <!-- Embedding details -->
  <rect x="100" y="280" width="250" height="40" rx="5" fill="#fff" stroke="#fa541c" stroke-width="1" />
  <text x="225" y="305" font-family="Arial" font-size="14" text-anchor="middle">User Embedding (dim=16)</text>
  
  <rect x="450" y="280" width="250" height="40" rx="5" fill="#fff" stroke="#fa541c" stroke-width="1" />
  <text x="575" y="305" font-family="Arial" font-size="14" text-anchor="middle">Product Embedding (dim=16)</text>
  
  <!-- Arrows down -->
  <line x1="225" y1="340" x2="225" y2="380" stroke="#666" stroke-width="2" />
  <line x1="575" y1="340" x2="575" y2="380" stroke="#666" stroke-width="2" />
  
  <!-- Flatten Layer -->
  <rect x="50" y="380" width="700" height="80" rx="10" fill="#f9f0ff" stroke="#722ed1" stroke-width="2" />
  <text x="400" y="410" font-family="Arial" font-size="18" font-weight="bold" text-anchor="middle">Flatten Layer</text>
  
  <rect x="100" y="430" width="250" height="20" rx="5" fill="#fff" stroke="#722ed1" stroke-width="1" />
  <text x="225" y="445" font-family="Arial" font-size="12" text-anchor="middle">User Vector (16)</text>
  
  <rect x="450" y="430" width="250" height="20" rx="5" fill="#fff" stroke="#722ed1" stroke-width="1" />
  <text x="575" y="445" font-family="Arial" font-size="12" text-anchor="middle">Product Vector (16)</text>
  
  <!-- Arrows down with merge -->
  <line x1="225" y1="460" x2="225" y2="480" stroke="#666" stroke-width="2" />
  <line x1="575" y1="460" x2="575" y2="480" stroke="#666" stroke-width="2" />
  <line x1="225" y1="480" x2="400" y2="500" stroke="#666" stroke-width="2" />
  <line x1="575" y1="480" x2="400" y2="500" stroke="#666" stroke-width="2" />
  
  <!-- Concatenate Layer -->
  <rect x="50" y="500" width="700" height="60" rx="10" fill="#fff0f6" stroke="#eb2f96" stroke-width="2" />
  <text x="400" y="530" font-family="Arial" font-size="18" font-weight="bold" text-anchor="middle">Concatenate Layer</text>
  <rect x="250" y="540" width="300" height="20" rx="5" fill="#fff" stroke="#eb2f96" stroke-width="1" />
  <text x="400" y="555" font-family="Arial" font-size="12" text-anchor="middle">Concatenated Vector (32)</text>
  
  <!-- Arrow down -->
  <line x1="400" y1="560" x2="400" y2="580" stroke="#666" stroke-width="2" />
  
  <!-- Deep Neural Network -->
  <rect x="50" y="580" width="700" height="360" rx="10" fill="#e6fffb" stroke="#13c2c2" stroke-width="2" />
  <text x="400" y="610" font-family="Arial" font-size="18" font-weight="bold" text-anchor="middle">Deep Neural Network</text>
  
  <!-- DNN details -->
  <!-- Layer 1 -->
  <rect x="150" y="640" width="500" height="40" rx="5" fill="#fff" stroke="#13c2c2" stroke-width="1" />
  <text x="400" y="665" font-family="Arial" font-size="14" text-anchor="middle">Dense Layer (32 neurons)</text>
  <line x1="400" y1="680" x2="400" y2="700" stroke="#666" stroke-width="1" />
  
  <rect x="150" y="700" width="500" height="30" rx="5" fill="#fff" stroke="#13c2c2" stroke-width="1" />
  <text x="400" y="720" font-family="Arial" font-size="12" text-anchor="middle">Batch Normalization</text>
  <line x1="400" y1="730" x2="400" y2="750" stroke="#666" stroke-width="1" />
  
  <rect x="150" y="750" width="500" height="30" rx="5" fill="#fff" stroke="#13c2c2" stroke-width="1" />
  <text x="400" y="770" font-family="Arial" font-size="12" text-anchor="middle">LeakyReLU(0.1)</text>
  <line x1="400" y1="780" x2="400" y2="800" stroke="#666" stroke-width="1" />
  
  <rect x="150" y="800" width="500" height="30" rx="5" fill="#fff" stroke="#13c2c2" stroke-width="1" />
  <text x="400" y="820" font-family="Arial" font-size="12" text-anchor="middle">Dropout(0.3)</text>
  <line x1="400" y1="830" x2="400" y2="850" stroke="#666" stroke-width="1" />
  
  <!-- Layer 2 -->
  <rect x="150" y="850" width="500" height="30" rx="5" fill="#fff" stroke="#13c2c2" stroke-width="1" />
  <text x="400" y="870" font-family="Arial" font-size="12" text-anchor="middle">Dense Layer (16 neurons) → BatchNorm → LeakyReLU → Dropout</text>
  <line x1="400" y1="880" x2="400" y2="900" stroke="#666" stroke-width="1" />
  
  <!-- Layer 3 -->
  <rect x="150" y="900" width="500" height="30" rx="5" fill="#fff" stroke="#13c2c2" stroke-width="1" />
  <text x="400" y="920" font-family="Arial" font-size="12" text-anchor="middle">Dense Layer (8 neurons) → BatchNorm → LeakyReLU</text>
  <line x1="400" y1="930" x2="400" y2="950" stroke="#666" stroke-width="1" />
  
  <!-- Output Layer -->
  <rect x="200" y="950" width="400" height="40" rx="5" fill="#f6ffed" stroke="#52c41a" stroke-width="2" />
  <text x="400" y="975" font-family="Arial" font-size="14" font-weight="bold" text-anchor="middle">Dense Layer (1) - Sigmoid Activation</text>
  
  <!-- Arrow down -->
  <line x1="400" y1="990" x2="400" y2="1020" stroke="#666" stroke-width="2" />
  
  <!-- Output -->
  <rect x="50" y="1020" width="700" height="120" rx="10" fill="#f0f5ff" stroke="#2f54eb" stroke-width="2" />
  <text x="400" y="1050" font-family="Arial" font-size="18" font-weight="bold" text-anchor="middle">OUTPUT</text>
  
  <rect x="200" y="1080" width="400" height="40" rx="5" fill="#fff" stroke="#2f54eb" stroke-width="1" />
  <text x="400" y="1105" font-family="Arial" font-size="14" text-anchor="middle">Predicted Rating (0-1) → Inverse Transform → (1-5)</text>
  
  <!-- Mathematical Expression Box -->
  <rect x="50" y="1150" width="700" height="30" rx="5" fill="#fffbe6" stroke="#faad14" stroke-width="1" />
  <text x="400" y="1170" font-family="Arial" font-size="14" text-anchor="middle" font-style="italic">
    predicted_rating = σ( W₃ · ReLU( BN( W₂ · ReLU( BN( W₁ · [u; p] + b₁) ) + b₂) ) + b₃ )
  </text>

</svg>
